<mxfile host="app.diagrams.net" agent="Mozilla/5.0 (X11; Ubuntu; Linux x86_64; rv:132.0) Gecko/20100101 Firefox/132.0" version="24.8.4">
  <diagram name="Page-1" id="xjxxhjOiVLYa-9GL6QN5">
    <mxGraphModel dx="1434" dy="795" grid="1" gridSize="10" guides="1" tooltips="1" connect="1" arrows="1" fold="1" page="1" pageScale="1" pageWidth="850" pageHeight="1100" math="0" shadow="0">
      <root>
        <mxCell id="0" />
        <mxCell id="1" parent="0" />
        <mxCell id="3T30FYEQzvDfCvW_8nK_-10" style="edgeStyle=orthogonalEdgeStyle;rounded=0;orthogonalLoop=1;jettySize=auto;html=1;entryX=0;entryY=0.5;entryDx=0;entryDy=0;endArrow=none;endFill=0;" edge="1" parent="1" source="3T30FYEQzvDfCvW_8nK_-1" target="3T30FYEQzvDfCvW_8nK_-9">
          <mxGeometry relative="1" as="geometry" />
        </mxCell>
        <mxCell id="3T30FYEQzvDfCvW_8nK_-1" value="&lt;font style=&quot;font-size: 25px;&quot;&gt;user&lt;/font&gt;" style="rounded=0;whiteSpace=wrap;html=1;" vertex="1" parent="1">
          <mxGeometry x="150" y="170" width="80" height="40" as="geometry" />
        </mxCell>
        <mxCell id="3T30FYEQzvDfCvW_8nK_-2" value="&lt;div&gt;&lt;font style=&quot;font-size: 25px;&quot;&gt;list&lt;/font&gt;&lt;/div&gt;" style="rounded=0;whiteSpace=wrap;html=1;" vertex="1" parent="1">
          <mxGeometry x="560" y="410" width="80" height="40" as="geometry" />
        </mxCell>
        <mxCell id="3T30FYEQzvDfCvW_8nK_-3" value="&lt;div&gt;&lt;font style=&quot;font-size: 25px;&quot;&gt;club&lt;/font&gt;&lt;/div&gt;" style="rounded=0;whiteSpace=wrap;html=1;" vertex="1" parent="1">
          <mxGeometry x="150" y="410" width="80" height="40" as="geometry" />
        </mxCell>
        <mxCell id="3T30FYEQzvDfCvW_8nK_-4" value="&lt;div&gt;&lt;font style=&quot;font-size: 25px;&quot;&gt;book&lt;/font&gt;&lt;/div&gt;" style="rounded=0;whiteSpace=wrap;html=1;" vertex="1" parent="1">
          <mxGeometry x="560" y="170" width="80" height="40" as="geometry" />
        </mxCell>
        <mxCell id="3T30FYEQzvDfCvW_8nK_-6" style="edgeStyle=orthogonalEdgeStyle;rounded=0;orthogonalLoop=1;jettySize=auto;html=1;entryX=0.5;entryY=1;entryDx=0;entryDy=0;endArrow=none;endFill=0;" edge="1" parent="1" source="3T30FYEQzvDfCvW_8nK_-5" target="3T30FYEQzvDfCvW_8nK_-1">
          <mxGeometry relative="1" as="geometry" />
        </mxCell>
        <mxCell id="3T30FYEQzvDfCvW_8nK_-7" style="edgeStyle=orthogonalEdgeStyle;rounded=0;orthogonalLoop=1;jettySize=auto;html=1;entryX=0.5;entryY=0;entryDx=0;entryDy=0;endArrow=none;endFill=0;" edge="1" parent="1" source="3T30FYEQzvDfCvW_8nK_-5" target="3T30FYEQzvDfCvW_8nK_-3">
          <mxGeometry relative="1" as="geometry" />
        </mxCell>
        <mxCell id="3T30FYEQzvDfCvW_8nK_-5" value="&lt;font style=&quot;font-size: 16px;&quot;&gt;menbership&lt;/font&gt;" style="rhombus;whiteSpace=wrap;html=1;" vertex="1" parent="1">
          <mxGeometry x="140" y="270" width="100" height="80" as="geometry" />
        </mxCell>
        <mxCell id="3T30FYEQzvDfCvW_8nK_-11" style="edgeStyle=orthogonalEdgeStyle;rounded=0;orthogonalLoop=1;jettySize=auto;html=1;entryX=0;entryY=0.5;entryDx=0;entryDy=0;strokeColor=default;endArrow=none;endFill=0;" edge="1" parent="1" source="3T30FYEQzvDfCvW_8nK_-9" target="3T30FYEQzvDfCvW_8nK_-4">
          <mxGeometry relative="1" as="geometry" />
        </mxCell>
        <mxCell id="3T30FYEQzvDfCvW_8nK_-9" value="&lt;font style=&quot;font-size: 20px;&quot;&gt;review&lt;/font&gt;" style="rhombus;whiteSpace=wrap;html=1;" vertex="1" parent="1">
          <mxGeometry x="364" y="150" width="80" height="80" as="geometry" />
        </mxCell>
        <mxCell id="3T30FYEQzvDfCvW_8nK_-13" style="edgeStyle=orthogonalEdgeStyle;rounded=0;orthogonalLoop=1;jettySize=auto;html=1;endArrow=none;endFill=0;" edge="1" parent="1" source="3T30FYEQzvDfCvW_8nK_-12" target="3T30FYEQzvDfCvW_8nK_-3">
          <mxGeometry relative="1" as="geometry" />
        </mxCell>
        <mxCell id="3T30FYEQzvDfCvW_8nK_-14" style="edgeStyle=orthogonalEdgeStyle;rounded=0;orthogonalLoop=1;jettySize=auto;html=1;shape=link;" edge="1" parent="1" source="3T30FYEQzvDfCvW_8nK_-12" target="3T30FYEQzvDfCvW_8nK_-2">
          <mxGeometry relative="1" as="geometry" />
        </mxCell>
        <mxCell id="3T30FYEQzvDfCvW_8nK_-12" value="&lt;font style=&quot;font-size: 20px;&quot;&gt;manage&lt;/font&gt;" style="rhombus;whiteSpace=wrap;html=1;" vertex="1" parent="1">
          <mxGeometry x="354" y="390" width="100" height="80" as="geometry" />
        </mxCell>
        <mxCell id="3T30FYEQzvDfCvW_8nK_-16" value="" style="edgeStyle=orthogonalEdgeStyle;rounded=0;orthogonalLoop=1;jettySize=auto;html=1;endArrow=none;endFill=0;" edge="1" parent="1" source="3T30FYEQzvDfCvW_8nK_-15" target="3T30FYEQzvDfCvW_8nK_-4">
          <mxGeometry relative="1" as="geometry" />
        </mxCell>
        <mxCell id="3T30FYEQzvDfCvW_8nK_-17" value="" style="edgeStyle=orthogonalEdgeStyle;rounded=0;orthogonalLoop=1;jettySize=auto;html=1;endArrow=none;endFill=0;" edge="1" parent="1" source="3T30FYEQzvDfCvW_8nK_-15" target="3T30FYEQzvDfCvW_8nK_-2">
          <mxGeometry relative="1" as="geometry" />
        </mxCell>
        <mxCell id="3T30FYEQzvDfCvW_8nK_-15" value="&lt;font style=&quot;font-size: 17px;&quot;&gt;compose&lt;/font&gt;" style="rhombus;whiteSpace=wrap;html=1;" vertex="1" parent="1">
          <mxGeometry x="560" y="270" width="80" height="80" as="geometry" />
        </mxCell>
        <mxCell id="3T30FYEQzvDfCvW_8nK_-20" value="&lt;font style=&quot;font-size: 23px;&quot;&gt;N&lt;/font&gt;" style="text;html=1;align=center;verticalAlign=middle;whiteSpace=wrap;rounded=0;" vertex="1" parent="1">
          <mxGeometry x="530" y="160" width="22" height="30" as="geometry" />
        </mxCell>
        <mxCell id="3T30FYEQzvDfCvW_8nK_-21" value="&lt;font style=&quot;font-size: 23px;&quot;&gt;N&lt;/font&gt;" style="text;html=1;align=center;verticalAlign=middle;whiteSpace=wrap;rounded=0;" vertex="1" parent="1">
          <mxGeometry x="240" y="160" width="22" height="30" as="geometry" />
        </mxCell>
        <mxCell id="3T30FYEQzvDfCvW_8nK_-22" value="&lt;font style=&quot;font-size: 23px;&quot;&gt;N&lt;/font&gt;" style="text;html=1;align=center;verticalAlign=middle;whiteSpace=wrap;rounded=0;" vertex="1" parent="1">
          <mxGeometry x="200" y="380" width="22" height="30" as="geometry" />
        </mxCell>
        <mxCell id="3T30FYEQzvDfCvW_8nK_-23" value="&lt;font style=&quot;font-size: 23px;&quot;&gt;N&lt;/font&gt;" style="text;html=1;align=center;verticalAlign=middle;whiteSpace=wrap;rounded=0;" vertex="1" parent="1">
          <mxGeometry x="200" y="220" width="22" height="30" as="geometry" />
        </mxCell>
        <mxCell id="3T30FYEQzvDfCvW_8nK_-24" value="&lt;font style=&quot;font-size: 23px;&quot;&gt;N&lt;/font&gt;" style="text;html=1;align=center;verticalAlign=middle;whiteSpace=wrap;rounded=0;" vertex="1" parent="1">
          <mxGeometry x="530" y="400" width="22" height="30" as="geometry" />
        </mxCell>
        <mxCell id="3T30FYEQzvDfCvW_8nK_-26" value="&lt;font style=&quot;font-size: 27px;&quot;&gt;1&lt;/font&gt;" style="text;html=1;align=center;verticalAlign=middle;whiteSpace=wrap;rounded=0;" vertex="1" parent="1">
          <mxGeometry x="250" y="400" width="22" height="30" as="geometry" />
        </mxCell>
        <mxCell id="3T30FYEQzvDfCvW_8nK_-27" value="&lt;font style=&quot;font-size: 23px;&quot;&gt;N&lt;/font&gt;" style="text;html=1;align=center;verticalAlign=middle;whiteSpace=wrap;rounded=0;" vertex="1" parent="1">
          <mxGeometry x="610" y="220" width="22" height="30" as="geometry" />
        </mxCell>
        <mxCell id="3T30FYEQzvDfCvW_8nK_-28" value="&lt;font style=&quot;font-size: 23px;&quot;&gt;N&lt;/font&gt;" style="text;html=1;align=center;verticalAlign=middle;whiteSpace=wrap;rounded=0;" vertex="1" parent="1">
          <mxGeometry x="610" y="380" width="22" height="30" as="geometry" />
        </mxCell>
        <mxCell id="3T30FYEQzvDfCvW_8nK_-33" style="edgeStyle=orthogonalEdgeStyle;rounded=0;orthogonalLoop=1;jettySize=auto;html=1;entryX=0;entryY=0.5;entryDx=0;entryDy=0;endArrow=none;endFill=0;" edge="1" parent="1" source="3T30FYEQzvDfCvW_8nK_-29" target="3T30FYEQzvDfCvW_8nK_-1">
          <mxGeometry relative="1" as="geometry" />
        </mxCell>
        <mxCell id="3T30FYEQzvDfCvW_8nK_-29" value="&lt;u&gt;&lt;font style=&quot;font-size: 20px;&quot;&gt;id&lt;/font&gt;&lt;/u&gt;" style="ellipse;whiteSpace=wrap;html=1;" vertex="1" parent="1">
          <mxGeometry x="50" y="175" width="50" height="30" as="geometry" />
        </mxCell>
        <mxCell id="3T30FYEQzvDfCvW_8nK_-36" style="edgeStyle=orthogonalEdgeStyle;rounded=0;orthogonalLoop=1;jettySize=auto;html=1;entryX=0.5;entryY=0;entryDx=0;entryDy=0;endArrow=none;endFill=0;" edge="1" parent="1" source="3T30FYEQzvDfCvW_8nK_-30" target="3T30FYEQzvDfCvW_8nK_-4">
          <mxGeometry relative="1" as="geometry" />
        </mxCell>
        <mxCell id="3T30FYEQzvDfCvW_8nK_-30" value="&lt;u&gt;&lt;font style=&quot;font-size: 20px;&quot;&gt;id&lt;/font&gt;&lt;/u&gt;" style="ellipse;whiteSpace=wrap;html=1;" vertex="1" parent="1">
          <mxGeometry x="575" y="70" width="50" height="30" as="geometry" />
        </mxCell>
        <mxCell id="3T30FYEQzvDfCvW_8nK_-35" style="edgeStyle=orthogonalEdgeStyle;rounded=0;orthogonalLoop=1;jettySize=auto;html=1;entryX=0;entryY=0.5;entryDx=0;entryDy=0;endArrow=none;endFill=0;" edge="1" parent="1" source="3T30FYEQzvDfCvW_8nK_-31" target="3T30FYEQzvDfCvW_8nK_-3">
          <mxGeometry relative="1" as="geometry" />
        </mxCell>
        <mxCell id="3T30FYEQzvDfCvW_8nK_-31" value="&lt;u&gt;&lt;font style=&quot;font-size: 20px;&quot;&gt;id&lt;/font&gt;&lt;/u&gt;" style="ellipse;whiteSpace=wrap;html=1;" vertex="1" parent="1">
          <mxGeometry x="40" y="415" width="50" height="30" as="geometry" />
        </mxCell>
      </root>
    </mxGraphModel>
  </diagram>
</mxfile>
